<svg width="512" height="512" viewBox="0 0 512 512" fill="none" xmlns="http://www.w3.org/2000/svg">
<path fill-rule="evenodd" clip-rule="evenodd" d="M373.178 98.7579L387.546 135.984L387.383 137.586C334.761 145.295 297.524 180.143 293.502 226.113C287.937 289.713 317.666 319.1 359.464 344.323C360.821 345.142 362.295 345.853 363.875 346.459C376.486 353.979 384.934 367.756 384.934 383.507C384.934 407.312 365.635 426.611 341.83 426.611C341.358 426.611 340.889 426.603 340.421 426.588C339.117 440.984 331.752 469.378 311.713 486.991C317.286 487.657 322.98 488 328.768 488C409.099 488 446.978 450.291 446.978 393.302C446.978 342.163 413.847 317.066 372.124 297.352C354.313 284.572 343.137 266.166 343.137 245.705C343.137 221.596 358.655 200.339 382.261 187.778L381.015 199.987L381.037 200.006C388.226 198.647 397.424 200.826 405.658 206.505C416.264 213.818 422.011 224.69 420.566 233.211L450.243 211.743C443.495 188.667 418.634 133.764 373.178 98.7579Z" fill="url(#paint0_linear_98_4892)"/>
<path fill-rule="evenodd" clip-rule="evenodd" d="M137.737 98.759L123.43 135.985L123.593 137.586C175.99 145.296 213.069 180.143 217.074 226.113C222.615 289.713 193.012 319.101 151.392 344.323C150.04 345.143 148.572 345.854 146.998 346.46C134.442 353.981 126.032 367.757 126.032 383.506C126.032 407.311 145.248 426.61 168.952 426.61C169.421 426.61 169.889 426.602 170.354 426.587C171.653 440.982 178.986 469.377 198.939 486.991C193.391 487.656 187.721 488 181.958 488C101.969 488 64.2512 450.291 64.2512 393.302C64.2512 342.162 97.2413 317.066 138.787 297.352C156.522 284.572 167.651 266.165 167.651 245.705C167.651 221.596 152.198 200.338 128.692 187.778L129.933 199.988L129.911 200.007C122.753 198.648 113.595 200.827 105.395 206.506C94.8345 213.82 89.1118 224.691 90.5508 233.213L60.9999 211.744C67.7198 188.668 92.475 133.765 137.737 98.759Z" fill="url(#paint1_linear_98_4892)"/>
<path fill-rule="evenodd" clip-rule="evenodd" d="M281.715 53.1915L270.062 22.999C315.517 58.0048 340.378 112.908 347.127 135.984L317.449 157.453C318.895 148.931 313.147 138.06 302.541 130.746C294.307 125.067 285.109 122.888 277.92 124.247L277.899 124.228L280.012 103.521C270.281 108.991 262.416 117.095 257.71 127.462C250.315 143.755 252.266 162.24 261.337 178.196C270.34 198.105 279.063 239.639 273.908 282.277C270.711 308.726 262.728 332.717 255.946 353.1C249.302 373.068 243.81 389.572 245.1 401.53C244.939 401.523 244.779 401.516 244.619 401.509C246.608 414.69 254.429 424.825 264.877 426.098C276.227 427.481 287.079 417.967 291.654 403.805C301.372 405.676 311.825 407.184 322.01 407.765C315.117 461.824 292.002 488.001 253.663 488.001C199.81 488.001 188.32 437.552 196.355 381.473C196.48 373.542 201.434 363.174 207.75 349.955C225.785 312.207 254.931 251.209 214.477 157.287C192.38 105.986 235.582 64.7278 281.715 53.1915Z" fill="url(#paint2_linear_98_4892)"/>
<defs>
<linearGradient id="paint0_linear_98_4892" x1="371.538" y1="98.7579" x2="371.538" y2="488.001" gradientUnits="userSpaceOnUse">
<stop stop-color="#FF6E2B"/>
<stop offset="1" stop-color="#951311"/>
</linearGradient>
<linearGradient id="paint1_linear_98_4892" x1="139.37" y1="98.759" x2="139.37" y2="488" gradientUnits="userSpaceOnUse">
<stop stop-color="#FF6E2B"/>
<stop offset="1" stop-color="#951311"/>
</linearGradient>
<linearGradient id="paint2_linear_98_4892" x1="270.586" y1="22.999" x2="270.586" y2="488.001" gradientUnits="userSpaceOnUse">
<stop stop-color="#FF6E2B"/>
<stop offset="1" stop-color="#951311"/>
</linearGradient>
</defs>
</svg>
