<svg width="512" height="512" viewBox="0 0 512 512" fill="none" xmlns="http://www.w3.org/2000/svg">
<path fill-rule="evenodd" clip-rule="evenodd" d="M199.202 29.3085C126.629 46.4542 71.8937 109.678 67.6713 186.346C68.1633 188.7 68.7086 191.036 69.3058 193.352C94.9225 147.964 142.432 104.026 230.541 96.2575L211.371 78.805L250.968 52.121L231.864 81.5774L247.475 95.2356C251.213 95.1101 255.018 95.0463 258.892 95.0463C296.237 95.0463 327.724 103.612 354.085 116.839L376.003 98.2659C376.094 98.3063 376.185 98.3464 376.275 98.3862L401.864 77.6513C401.864 77.6513 342.681 48.6862 322.575 39.6206C297.4 27.2739 274.663 16.7733 274.663 16.7733H189.217L199.202 29.3085Z" fill="black"/>
<path fill-rule="evenodd" clip-rule="evenodd" d="M265.387 250.99L257.949 246.873H315.724C315.724 246.873 347.801 259.677 363.15 269.38C363.158 269.39 363.166 269.401 363.174 269.412C375.455 276.529 388.765 285.017 388.765 285.017L376.787 296.718C376.776 296.713 376.764 296.708 376.752 296.702L363.819 309.053C353.151 303.488 339.155 299.359 321.109 299.359C312.506 299.359 304.901 300.009 298.179 301.159L286.132 290.633L299.049 270.742L272.276 288.761L288.328 303.357C246.621 315.042 246.97 348.318 246.97 348.318C246.97 382.449 279.406 401.515 319.565 401.515C332.396 401.515 344.596 398.767 355.259 393.84C337.734 411.866 313.183 423.071 286.005 423.071C240.218 423.071 201.885 391.268 192.044 348.621C191.675 345.334 191.485 341.992 191.485 338.606C191.485 294.707 223.409 258.237 265.387 250.99Z" fill="black"/>
<path fill-rule="evenodd" clip-rule="evenodd" d="M202.5 109L214.412 120.212C119.643 130.929 46 211.364 46 308.999C46 358.836 65.1881 404.192 96.5796 438.081C96.5359 438.167 96.4928 438.251 96.4502 438.334C134.101 474.073 184.99 496 241 496C321.811 496 391.96 450.355 427.073 383.44C400.89 419.124 356.793 441.5 308 441.5C230 441.5 167 401 167 328.5C167 328.5 166.315 257.242 248.316 232.694L215 211L279 175L251 208L278.451 226.45C288.388 225.187 299.212 224.5 311 224.5C354.769 224.5 386.271 238.176 408.239 254.392L441.5 230.999C436.347 229.413 430.286 227.653 424.037 225.838L424.037 225.838C406.638 220.786 387.782 215.31 383 211.999C376.023 207.169 380.5 198.999 386 198.999C387.448 198.999 389.687 199.148 392.505 199.461C410.563 202.353 438.001 210.989 455 218.5L471.5 207C471.5 207 462.5 171 455 171C452.201 171 450.468 171.142 449.081 171.256C445.265 171.569 444.068 171.667 430.5 168C421.172 165.479 415.078 162.774 408.609 159.461L408.566 159.403C372.92 138.177 298.5 109 298.5 109H202.5ZM314.5 150.5L353 167.5C347.833 168.833 332.5 168.5 324.5 165.5C318.622 163.296 313.5 154.833 314.5 150.5Z" fill="black"/>
</svg>
